<svg id="Layer_1" data-name="Layer 1" xmlns="http://www.w3.org/2000/svg" viewBox="0 0 341.8 141.64"><defs><style>.cls-1{fill:#ff0d98;}</style></defs><title>Example_Company_Letterhead_Quotation</title><path d="M322.7,69.76A45.42,45.42,0,0,0,284.93,25c16.66,6.71,28.55,24.19,28.55,44.79s-11.89,38.08-28.55,44.79A45.43,45.43,0,0,0,322.7,69.76Z"/><path d="M337.66,69.76A45.43,45.43,0,0,0,299.89,25c16.66,6.71,28.55,24.19,28.55,44.79s-11.89,38.08-28.55,44.79A45.44,45.44,0,0,0,337.66,69.76Z"/><path d="M51.23,69.8l33.62,45.5H56.41L28.86,78.65V115.3H5v-91H28.86V61L56.41,24.31H84.85Z"/><path d="M257.75,24.31a45.5,45.5,0,1,1,0,91H223v-91ZM246.88,48.19V91.41h10.36c12.89,0,22.12-8.71,22.12-21.61s-9.23-21.61-22.12-21.61Z"/><rect x="129.02" y="85.02" width="23.89" height="30.28"/><path class="cls-1" d="M102.75,4.85a402.74,402.74,0,0,1-46.32,113,80.24,80.24,0,0,1-8.18,11.62,27.49,27.49,0,0,1-5,4.82c-4.37,2.91-11,1.61-9.45-4.75,2.59-10.74,19.91-11.95,28.55-11.4,19.16,1.21,38.93,12.5,58.24,7a34.68,34.68,0,0,0,18.57-13.29c4.57-6.37,8-12.77,13.81-18.17,1.41-1.32-.71-3.44-2.12-2.13-5.43,5.07-9,10.75-13,17a32.11,32.11,0,0,1-26.3,15c-23,.61-46-14.78-68.86-5.68-6,2.38-13.73,7.86-11.88,15.42,1.78,7.3,10.28,6.81,15,2.91,8-6.56,13.09-16.27,18.09-25.08q8.9-15.64,16.37-32A413,413,0,0,0,105.64,5.65c.46-1.88-2.43-2.68-2.89-.8Z"/><path d="M116.48,115.3H92.59v-91h23.89Z"/><path d="M186.52,73.22V24.31h23.89v91H190.32L152.91,66.39V115.3H129v-91h20.1Z"/><path class="cls-1" d="M265.35,6.68C258.24,27,252.33,47.77,245,68a288.89,288.89,0,0,1-12.94,31c-2,4.09-4.22,8.11-6.59,12-3.35,5.54-7.4,13.33-14.82,13.45-7.66.11-9.59-7.51-9.27-13.74a29.45,29.45,0,0,1,7.11-17.31c7.44-8.78,19.21-12.47,30.44-12.06,10.48.38,22.91,4.56,27.65,14.77,4.23,9.11-.16,20.92-8.79,25.73-5.85,3.27-13.11,2.6-19.15.23-5.29-2.08-9.25-6.41-14.48-8.45-7.95-3.1-15.12,4-9.65,11.4,1.13,1.54,3.74,0,2.59-1.51-2.17-3-2-7.45,2.51-7.84,2.13-.18,4.22,1,6,2.05,2.62,1.53,4.93,3.55,7.59,5A31.63,31.63,0,0,0,249,127.14a22.45,22.45,0,0,0,20.47-14.54c8.91-22.42-16.44-35.32-35.28-34.13-11.26.72-22.34,5.46-29.24,14.64-5.6,7.46-9.33,19.55-4.71,28.44,5.08,9.8,17,5.94,22.52-1C230.11,111.32,235.33,99.82,240,89c11.4-26.47,18.78-54.4,28.27-81.57.64-1.82-2.26-2.61-2.89-.79Z"/><path class="cls-1" d="M178.77,92.86c2-3.31.11-7-2.68-9.26-3.62-2.91-8.46-1.94-12.44-.32-9.58,3.89-20.92,14.22-23.73,24.44-1.17,4.28-1.09,9.71,2.7,12.68a11.69,11.69,0,0,0,12.08,1c11.15-5.39,18.48-17.06,23.65-27.77l-2.59-1.51c-2.91,6.27-5.65,12.81-4.22,19.84.9,4.42,3.49,9,8.41,9.48,9.28.91,18.93-11,23-18a1.5,1.5,0,0,0-2.59-1.51c-3.46,6-9.2,12.39-15.47,15.4-5.11,2.46-9-.16-10.33-5.52-1.54-6.35,1.15-12.49,3.77-18.15.81-1.73-1.74-3.26-2.59-1.51-3.3,6.83-7.06,13.49-12.45,18.92a39.17,39.17,0,0,1-8.79,7c-5.3,2.87-12.35,1.54-12.27-5.8.09-7.94,7-14.63,12.46-19.62a35.37,35.37,0,0,1,9.07-6.16c2.43-1.1,5.61-2.3,8.32-1.6,2.23.57,5.76,3.75,4.08,6.49-1,1.65,1.58,3.16,2.59,1.51Z"/><polygon points="210.41 63.25 210.41 115.3 190.32 115.3 183.5 106.39 210.41 63.25"/></svg>