<svg id="Layer_1" data-name="Layer 1" xmlns="http://www.w3.org/2000/svg" viewBox="0 0 238.37 76.14"><defs><style>.cls-1{fill:#031b4e;}</style></defs><title>Artboard 4</title><path class="cls-1" d="M16.78,5.39V73h-14V5.39Z"/><path class="cls-1" d="M43.8,25.36q8.41,0,13.33,4.06a15.47,15.47,0,0,1,5.56,11l-13.1.72q-.27-5.69-6-5.69c-3.55,0-5.33,1.32-5.33,4a3.07,3.07,0,0,0,2,3,61.53,61.53,0,0,0,7.14,2.17c5.66,1.5,9.73,3.24,12.2,5.19s3.7,4.84,3.7,8.63q0,7.23-5.06,11.39T44.17,74q-9,0-14.06-3.94T24.28,58.79l13.2-.72q.27,5.79,6.78,5.78a7.3,7.3,0,0,0,4.29-1.12,3.65,3.65,0,0,0,1.58-3.12,3.23,3.23,0,0,0-1.63-3,32.25,32.25,0,0,0-6.86-2.3A62.87,62.87,0,0,1,31.51,51a11.49,11.49,0,0,1-4.69-4.15,15.19,15.19,0,0,1-1.72-6.78,13,13,0,0,1,5-10.76Q35.14,25.36,43.8,25.36Z"/><path class="cls-1" d="M89.53,25.36q9.5,0,14.46,4.79t5,14V73H96.22V69.19A15.83,15.83,0,0,1,84.29,74Q77,74,72.86,70.41T68.75,60.15q0-13.38,18.7-14.19l8.32-.45V43.7q0-7.23-6.06-7.23a6.37,6.37,0,0,0-4.79,1.77,6,6,0,0,0-1.72,4.38L70,42.08q0-6.51,5.42-11.57A20,20,0,0,1,89.53,25.36Zm6.24,30.81v-2l-7,.45c-4.52.18-6.78,1.8-6.78,4.88q0,4.24,5.42,4.24a8.85,8.85,0,0,0,6.1-2A7,7,0,0,0,95.77,56.17Z"/><path class="cls-1" d="M126,3a7.67,7.67,0,0,1,5.65,2.3A7.71,7.71,0,0,1,133.9,11a7.62,7.62,0,0,1-2.35,5.6,8.07,8.07,0,0,1-11.2,0,6.57,6.57,0,0,1-2.17-4.06A8.38,8.38,0,0,1,118.72,8a8.56,8.56,0,0,1,2.89-3.57A6.78,6.78,0,0,1,126,3Zm6.6,23.22V73h-13.2V26.26Z"/><path class="cls-1" d="M161.64,25.36q9.5,0,14.46,4.79t5,14V73H168.33V69.19A15.83,15.83,0,0,1,156.4,74q-7.32,0-11.43-3.57t-4.11-10.26q0-13.38,18.7-14.19l8.32-.45V43.7q0-7.23-6.06-7.23A6.37,6.37,0,0,0,157,38.24a6,6,0,0,0-1.71,4.38l-13.2-.54q0-6.51,5.43-11.57A20,20,0,0,1,161.64,25.36Zm6.24,30.81v-2l-7,.45c-4.52.18-6.78,1.8-6.78,4.88q0,4.24,5.42,4.24a8.85,8.85,0,0,0,6.1-2A7,7,0,0,0,167.88,56.17Z"/><path class="cls-1" d="M191.46,2.77h13.2V30.24q3.79-4.89,11.84-4.88,8.31,0,13.28,5.1t5,14V73H221.56V47a9.89,9.89,0,0,0-2.22-6.83,7.65,7.65,0,0,0-6-2.48,8.2,8.2,0,0,0-6.28,2.57,9.65,9.65,0,0,0-2.39,6.83V73h-13.2Z"/></svg>